<?xml version="1.0" encoding="utf-8"?>
<!-- Generator: Adobe Illustrator 22.1.0, SVG Export Plug-In . SVG Version: 6.00 Build 0)  -->
<svg version="1.1" id="Ebene_1" xmlns="http://www.w3.org/2000/svg" xmlns:xlink="http://www.w3.org/1999/xlink" x="0px" y="0px"
	 width="124px" height="60px" viewBox="0 0 124 60" style="enable-background:new 0 0 124 60;" xml:space="preserve">
<style type="text/css">
	.st0{enable-background:new    ;}
	.st1{fill:#3E3E3E;}
</style>
<title>Group</title>
<desc>Created with Sketch.</desc>
<g>
	<g class="st0">
		<path class="st1" d="M14.9,41V18.5h9.8c4.2,0,6.9,2.2,6.9,5.6c0,2.5-1.8,4.5-4.2,4.9v0.1c3.1,0.2,5.3,2.5,5.3,5.5
			c0,4-3,6.5-7.8,6.5H14.9z M19.6,27.8H23c2.5,0,4-1.1,4-3c0-1.8-1.3-2.8-3.5-2.8h-3.9V27.8z M23.7,37.5c2.7,0,4.2-1.2,4.2-3.3
			c0-2.1-1.5-3.2-4.3-3.2h-4v6.5H23.7z"/>
		<path class="st1" d="M33.8,32.6c0-5.4,3.3-8.7,8.3-8.7s8.3,3.3,8.3,8.7c0,5.5-3.2,8.8-8.3,8.8S33.8,38.1,33.8,32.6z M45.8,32.6
			c0-3.3-1.4-5.2-3.7-5.2s-3.7,1.9-3.7,5.2c0,3.4,1.4,5.2,3.7,5.2C44.3,37.9,45.8,36,45.8,32.6z"/>
		<path class="st1" d="M63.1,36.2c0-3,2.3-4.8,6.5-5.1l4.2-0.2v-1.1c0-1.6-1.1-2.5-2.8-2.5c-1.7,0-2.8,0.8-3,2.1h-4.2
			c0.2-3.2,2.9-5.5,7.4-5.5c4.3,0,7.1,2.2,7.1,5.6V41h-4.4v-2.6h-0.1c-0.9,1.8-3,2.8-5.1,2.8C65.5,41.3,63.1,39.2,63.1,36.2z
			 M73.9,34.9v-1.2l-3.5,0.2c-1.7,0.1-2.7,0.9-2.7,2.1c0,1.2,1,2,2.6,2C72.2,38,73.9,36.7,73.9,34.9z"/>
		<path class="st1" d="M80.7,24.2h4.4v3h0.1c0.6-2.1,2-3.3,4-3.3c0.5,0,1,0.1,1.3,0.2v4c-0.4-0.2-1-0.3-1.7-0.3
			c-2.2,0-3.6,1.4-3.6,3.7V41h-4.6V24.2z"/>
		<path class="st1" d="M90.7,32.6c0-5.3,2.7-8.6,6.9-8.6c2.4,0,4.3,1.3,5.1,3.1h0.1v-8.7h4.6V41h-4.5v-2.9h-0.1
			c-0.8,1.8-2.8,3.1-5.2,3.1C93.3,41.3,90.7,38,90.7,32.6z M95.3,32.6c0,3.1,1.4,5,3.7,5c2.3,0,3.7-1.9,3.7-5c0-3-1.5-5-3.7-5
			C96.8,27.6,95.3,29.6,95.3,32.6z"/>
	</g>
	<g class="st0">
		<path class="st1" d="M116.4,23.9c4.2,0,6.9,2.1,7,5.4h-4.2c-0.1-1.3-1.2-2.2-2.9-2.2c-1.6,0-2.6,0.7-2.6,1.8
			c0,0.8,0.7,1.4,2.2,1.7l3.2,0.7c3.4,0.8,4.7,2.1,4.7,4.6c0,3.3-3,5.5-7.5,5.5c-4.5,0-7.2-2.2-7.5-5.4h4.5c0.2,1.4,1.3,2.2,3.1,2.2
			c1.7,0,2.8-0.7,2.8-1.8c0-0.8-0.6-1.3-2.1-1.7l-3.1-0.7c-3.2-0.7-4.8-2.4-4.8-4.8C109.3,26,112.1,23.9,116.4,23.9z"/>
	</g>
	<path class="st1" d="M39,59.5H21C9.7,59.5,0.5,50.3,0.5,39V21C0.5,9.7,9.7,0.5,21,0.5h18c11.3,0,20.5,9.2,20.5,20.5v18
		C59.5,50.3,50.3,59.5,39,59.5z M21,5.5c-8.5,0-15.5,7-15.5,15.5v18c0,8.5,7,15.5,15.5,15.5h18c8.5,0,15.5-7,15.5-15.5V21
		c0-8.5-7-15.5-15.5-15.5H21z"/>
</g>
</svg>
